<svg version="1.1" xmlns="http://www.w3.org/2000/svg" viewBox="0 0 255.26297235133586 257.9839269879832" width="255.26297235133586" height="257.9839269879832">
  <!-- svg-source:excalidraw -->
  
  <defs>
    <style class="style-fonts">
      
    </style>
    
  </defs>
  <g stroke-linecap="round"><g transform="translate(10.340357306905275 11.65809392850258) rotate(0 115 0)"><path d="M0.22 2.51 C87.97 0.49, 173.3 0.71, 229.92 1.92 M1.06 -0.61 C76.73 -3.06, 150.93 -0.74, 231.07 1.48" stroke="#1e1e1e" stroke-width="2" fill="none"></path></g></g><mask></mask><g stroke-linecap="round"><g transform="translate(8.340357306905275 244.65809392850258) rotate(0 116.5 0)"><path d="M1.87 2.17 C81.08 -0.52, 159.87 -0.99, 233.89 1.49 M1.66 -0.65 C85.09 3.07, 169.65 2.88, 231.39 -0.73" stroke="#1e1e1e" stroke-width="2" fill="none"></path></g></g><mask></mask><g stroke-linecap="round"><g transform="translate(9.340357306905275 11.65809392850258) rotate(0 0 116.5)"><path d="M1.11 2.39 C2.1 89.01, 3.07 175.68, 2.09 235.1 M0.8 1.67 C4.93 63.08, 2.25 122.47, 1.55 231.36" stroke="#1e1e1e" stroke-width="2" fill="none"></path></g></g><mask></mask><g stroke-linecap="round"><g transform="translate(243.34035730690528 12.65809392850258) rotate(0 0 116)"><path d="M-0.08 1.92 C2.18 86, 3.38 171.12, -1.21 235.33 M1.06 1.48 C0.25 60.01, 3.41 119.84, 0.85 230.98" stroke="#1e1e1e" stroke-width="4" fill="none"></path></g></g><mask></mask></svg>