<svg version="1.1" xmlns="http://www.w3.org/2000/svg" viewBox="0 0 255.86000754819906 256.66310835844274" width="255.86000754819906" height="256.66310835844274">
  <!-- svg-source:excalidraw -->
  
  <defs>
    <style class="style-fonts">
      
    </style>
    
  </defs>
  <g stroke-linecap="round"><g transform="translate(12 12.271265560014399) rotate(0 115 0)"><path d="M0 0 C60.67 -3, 121.33 -3.06, 230 0 M0 0 C46.13 -0.86, 91.91 -0.81, 230 0" stroke="#1e1e1e" stroke-width="2" fill="none"></path></g></g><mask></mask><g stroke-linecap="round"><g transform="translate(10 245.2712655600144) rotate(0 116.5 0)"><path d="M0 0 C82.24 1.67, 164.82 2.03, 233 0 M0 0 C61.67 -0.79, 122.36 -0.1, 233 0" stroke="#1e1e1e" stroke-width="2" fill="none"></path></g></g><mask></mask><g stroke-linecap="round"><g transform="translate(11 12.271265560014399) rotate(0 0 116.5)"><path d="M0 0 C0.65 86.87, 0.02 177.95, 0 233 M0 0 C0.07 67.99, 0.46 135.14, 0 233" stroke="#1e1e1e" stroke-width="2" fill="none"></path></g></g><mask></mask><g stroke-linecap="round"><g transform="translate(245 13.271265560014399) rotate(0 0 116)"><path d="M0 0 C0.98 86.12, 0.79 170.26, 0 232 M0 0 C1.21 85.18, 1.09 169.68, 0 232" stroke="#1e1e1e" stroke-width="4" fill="none"></path></g></g><mask></mask></svg>