<svg version="1.1" xmlns="http://www.w3.org/2000/svg" viewBox="0 0 318.47436642972747 96.68260563731201" width="318.47436642972747" height="96.68260563731201">
  <!-- svg-source:excalidraw -->
  
  <defs>
    <style class="style-fonts">
      
    </style>
    
  </defs>
  <g stroke-linecap="round"><g transform="translate(38.42628843104467 14.086665454581407) rotate(0 -14 33.5)"><path d="M-0.17 0.71 C-4.92 12.17, -22.95 56.68, -27.66 67.84 M-1.71 0.03 C-6.66 11.24, -23.82 55.22, -28.43 66.15" stroke="#1e1e1e" stroke-width="2" fill="none"></path></g></g><mask></mask><g stroke-linecap="round"><g transform="translate(73.42628843104467 14.086665454581407) rotate(0 -14 33.5)"><path d="M0.62 0.81 C-4.28 11.99, -23.68 55.48, -28.55 66.68 M-0.51 0.18 C-5.69 11.58, -24.92 57.05, -29.79 68.05" stroke="#1e1e1e" stroke-width="2" fill="none"></path></g></g><mask></mask><g stroke-linecap="round"><g transform="translate(107.42628843104467 14.086665454581407) rotate(0 -14 33.5)"><path d="M0.97 -1.2 C-3.61 9.96, -23 55.05, -27.78 66.31 M0.02 0.79 C-4.67 12.14, -23.89 56.39, -28.61 67.48" stroke="#1e1e1e" stroke-width="2" fill="none"></path></g></g><mask></mask><g stroke-linecap="round"><g transform="translate(142.4262884310446 14.086665454581407) rotate(0 -14 33.5)"><path d="M-0.65 0.32 C-5.01 11.47, -22.22 56.22, -26.89 67.2 M1.21 -0.56 C-3.15 10.18, -22.09 53.91, -27.26 65.18" stroke="#1e1e1e" stroke-width="2" fill="none"></path></g></g><mask></mask><g stroke-linecap="round"><g transform="translate(180.4262884310446 17.086665454581407) rotate(0 -14 33.5)"><path d="M-0.82 0.24 C-5.45 11.64, -23.04 56.59, -27.61 67.74 M0.95 -0.69 C-3.83 10.43, -23.34 54.47, -28.35 66" stroke="#1e1e1e" stroke-width="2" fill="none"></path></g></g><mask></mask><g stroke-linecap="round"><g transform="translate(220.4262884310446 19.086665454581407) rotate(0 -14 33.5)"><path d="M0.13 0.14 C-4.5 11.4, -22.2 56.26, -27.06 67.31 M-1.26 -0.83 C-6.03 10.07, -23.28 53.97, -27.51 65.36" stroke="#1e1e1e" stroke-width="2" fill="none"></path></g></g><mask></mask><g stroke-linecap="round"><g transform="translate(259.4262884310446 19.086665454581407) rotate(0 -14 33.5)"><path d="M-0.55 1.08 C-5.19 12.51, -22.99 56.6, -27.53 67.6 M1.36 0.6 C-3.43 11.76, -23.26 54.49, -28.22 65.79" stroke="#1e1e1e" stroke-width="2" fill="none"></path></g></g><mask></mask><g stroke-linecap="round"><g transform="translate(308.4262884310446 11.086665454581407) rotate(0 -14 33.5)"><path d="M0.05 -0.03 C-4.54 11.16, -22.34 56.19, -26.92 67.34 M-1.39 -1.09 C-6.09 9.7, -22.88 53.86, -27.31 65.4" stroke="#1e1e1e" stroke-width="2" fill="none"></path></g></g><mask></mask></svg>